# xmcd CD database file
#
# Track frame offsets:
#	150
#	17409
#	37022
#	55867
#	84460
#	109873
#	138218
#	159010
#	180840
#	202691
#	229364
#	252396
#
# Disc length: 3681 seconds
#
# Revision: 0
# Processed by: cddbd v1.5.2PL0 Copyright (c) Steve Scherf et al.
# Submitted via: CDex 1.51
#
DISCID=890e5f0c
DTITLE=Varios - Coleccion De Oro De La Salsa D3
DYEAR=2003
DGENRE=Salsa
TTITLE0=Lloraras-Oscar D'Leon
TTITLE1=Lo Quiero A Morir-Zayda
TTITLE2=A Pesar de la Distancia-Hansel Camacho
TTITLE3=Yambeque-Sonora Poncena
TTITLE4=Pa'La Paloma-Alquimia La Sonora Del XXI
TTITLE5=No Quedo Ni El Gato-Zaperoco
TTITLE6=Hoy Por Hoy-Bobby Cruz
TTITLE7=Tu Intrusa Y Amante-Orquesta Canela
TTITLE8=Los Fariseos-Richie Ray Y Bobby Cruz
TTITLE9=Fuego en el 23-Sonora Poncena
TTITLE10=Cali Pachanguero-Groupo Niche
TTITLE11=Mascaras-Tamba Fuego
EXTD=YEAR: 2003
EXTT0=
EXTT1=
EXTT2=
EXTT3=
EXTT4=
EXTT5=
EXTT6=
EXTT7=
EXTT8=
EXTT9=
EXTT10=
EXTT11=
PLAYORDER=
